<?xml version="1.0" standalone="no"?>
<!DOCTYPE svg PUBLIC "-//W3C//DTD SVG 20010904//EN"
 "http://www.w3.org/TR/2001/REC-SVG-20010904/DTD/svg10.dtd">
<svg version="1.0" xmlns="http://www.w3.org/2000/svg"
 width="1123.000000pt" height="1123.000000pt" viewBox="0 0 1123.000000 1123.000000"
 preserveAspectRatio="xMidYMid meet">
<metadata>
Created by potrace 1.11, written by Peter Selinger 2001-2013
</metadata>
<g transform="translate(0.000000,1123.000000) scale(0.100000,-0.100000)"
fill="#000000" stroke="none">
<path d="M1640 5610 l0 -5610 3970 0 3970 0 0 39 c0 33 -4 40 -22 43 -23 3
-23 3 -26 221 l-2 217 -90 0 -90 0 0 55 0 55 115 0 115 0 0 5295 0 5295 -3970
0 -3970 0 0 -5610z m2490 4960 c275 -52 1058 -202 1485 -285 182 -35 461 -89
620 -120 160 -31 450 -87 645 -125 195 -38 486 -94 645 -125 160 -30 322 -62
360 -70 39 -8 313 -62 610 -120 297 -59 544 -110 548 -115 21 -19 -172 -139
-996 -619 -599 -348 -700 -405 -747 -424 -37 -15 -1 -21 -1135 198 -382 74
-670 130 -955 185 -146 28 -344 66 -440 85 -96 19 -294 57 -440 85 -146 28
-344 66 -440 85 -96 19 -305 59 -465 90 -159 30 -321 62 -360 70 -38 7 -155
30 -260 50 -558 107 -715 140 -715 153 0 4 26 22 58 41 626 369 1372 803 1627
945 55 31 109 56 120 56 11 0 117 -18 235 -40z m5024 -1612 c4 -343 6 -899 4
-1237 l-3 -613 -913 -530 c-503 -291 -916 -528 -918 -525 -3 3 -6 560 -7 1238
l-2 1233 895 517 c492 285 902 523 910 528 8 5 18 10 21 10 4 1 10 -279 13
-621z m-3159 -2669 c707 -133 1174 -228 1205 -244 16 -8 30 -26 34 -42 3 -15
9 -903 12 -1973 l7 -1945 -54 -31 c-30 -17 -304 -175 -609 -351 -305 -176
-689 -397 -852 -491 l-298 -171 0 2675 0 2676 43 -7 c23 -4 254 -47 512 -96z
m-568 -2526 c-1 -202 -2 -39 -2 362 0 402 1 567 2 368 2 -199 2 -527 0 -730z
m-894 -3143 c37 -11 37 -11 37 -65 0 -30 -4 -55 -9 -55 -5 0 -26 7 -46 16 -21
9 -69 16 -106 17 -53 2 -71 -2 -88 -17 -48 -44 -19 -74 99 -101 143 -34 180
-68 180 -167 0 -72 -24 -117 -80 -148 -39 -21 -58 -24 -135 -24 -55 0 -112 7
-147 17 l-58 18 0 58 0 59 60 -25 c107 -43 230 -28 230 27 0 34 -34 56 -108
73 -138 31 -184 73 -184 166 1 85 35 131 113 157 48 15 175 12 242 -6z m2425
-5 l42 -17 0 -54 c0 -30 -2 -54 -5 -54 -3 0 -22 8 -43 19 -80 40 -172 33 -225
-17 -75 -71 -57 -245 31 -296 45 -25 126 -24 187 3 26 12 49 21 51 21 2 0 4
-22 4 -50 0 -59 -15 -72 -103 -90 -147 -30 -293 38 -345 159 -21 50 -21 184 2
236 18 42 53 84 97 116 68 48 217 60 307 24z m-4819 -15 c60 -33 84 -77 84
-150 0 -116 -64 -169 -214 -178 l-88 -5 -3 -91 -3 -91 -67 -3 -68 -3 0 277 0
276 158 -4 c145 -3 160 -5 201 -28z m821 -25 l0 -55 -115 0 -115 0 0 -50 0
-50 111 0 110 0 -3 -52 -3 -53 -107 -3 -108 -3 0 -59 0 -60 120 0 120 0 0 -55
0 -55 -190 0 -190 0 0 275 0 275 185 0 185 0 0 -55z m747 27 c94 -49 94 -200
0 -248 l-29 -16 29 -18 c21 -12 46 -50 82 -118 28 -55 51 -105 51 -111 0 -7
-26 -11 -70 -11 l-70 0 -45 89 c-48 97 -72 121 -122 121 l-32 0 -3 -103 -3
-102 -70 0 -70 0 -3 260 c-1 143 0 266 3 273 4 11 35 13 158 10 132 -3 157 -7
194 -26z m1642 -2 c60 -33 84 -77 84 -150 0 -115 -65 -169 -215 -178 l-87 -5
-3 -91 -3 -91 -67 -3 -68 -3 0 277 0 276 158 -4 c145 -3 160 -5 201 -28z m821
-25 l0 -55 -115 0 -115 0 0 -50 0 -50 111 0 110 0 -3 -52 -3 -53 -107 -3 -106
-3 -4 -55 c-1 -31 -1 -58 1 -60 2 -2 58 -4 123 -4 l118 0 0 -55 0 -55 -192 2
-193 3 -3 260 c-1 143 0 265 3 272 3 10 49 13 190 13 l185 0 0 -55z m1640 0
l0 -55 -90 0 -90 0 -2 -217 -3 -218 -67 -3 -68 -3 0 221 0 220 -90 0 -90 0 0
55 0 55 250 0 250 0 0 -55z m470 -220 l0 -276 -67 3 -68 3 -3 273 -2 272 70 0
70 0 0 -275z m540 55 l0 -220 126 0 125 0 -3 -52 -3 -53 -192 -3 -193 -2 0
275 0 275 70 0 70 0 0 -220z"/>
<path d="M1920 450 l0 -83 62 6 c70 6 98 28 98 77 0 50 -29 73 -99 78 l-61 4
0 -82z"/>
<path d="M3500 461 l0 -71 48 0 c57 0 80 14 88 55 9 48 -20 76 -84 83 l-52 5
0 -72z"/>
<path d="M5130 450 l0 -80 40 0 c89 0 136 45 114 109 -12 34 -48 51 -106 51
l-48 0 0 -80z"/>
</g>
</svg>
